<svg width="100" height="84" viewBox="0 0 100 84" fill="none" xmlns="http://www.w3.org/2000/svg">
<path d="M6.28051 2.67206H93.7195C96.262 2.67206 98.3162 4.72628 98.3162 7.26879V76.8765C98.3162 79.419 96.262 81.4732 93.7195 81.4732H6.28051C3.73799 81.4732 1.68378 79.419 1.68378 76.8765V7.26879C1.68378 4.72628 3.73799 2.67206 6.28051 2.67206Z" stroke="#44546A" stroke-width="3" stroke-linecap="round" stroke-linejoin="round"/>
<path d="M1.68378 13.9197H98.3162" stroke="#44546A" stroke-width="3" stroke-linecap="round" stroke-linejoin="round"/>
<path d="M24.6169 26.8007H13.4703V36.6845H24.6169V26.8007Z" stroke="#44546A" stroke-width="3" stroke-linecap="round" stroke-linejoin="round"/>
<path d="M44.9571 26.8007H33.8104V36.6845H44.9571V26.8007Z" stroke="#44546A" stroke-width="3" stroke-linecap="round" stroke-linejoin="round"/>
<path d="M86.5297 26.8007H75.3831V36.6845H86.5297V26.8007Z" stroke="#44546A" stroke-width="3" stroke-linecap="round" stroke-linejoin="round"/>
<path d="M24.6169 45.6591H13.4703V55.5429H24.6169V45.6591Z" stroke="#44546A" stroke-width="3" stroke-linecap="round" stroke-linejoin="round"/>
<path d="M44.9571 45.6591H33.8104V55.5429H44.9571V45.6591Z" stroke="#44546A" stroke-width="3" stroke-linecap="round" stroke-linejoin="round"/>
<path d="M66.1896 45.6591H55.0429V55.5429H66.1896V45.6591Z" stroke="#44546A" stroke-width="3" stroke-linecap="round" stroke-linejoin="round"/>
<path d="M86.5297 45.6591H75.3831V55.5429H86.5297V45.6591Z" stroke="#44546A" stroke-width="3" stroke-linecap="round" stroke-linejoin="round"/>
<path d="M55.0429 36.6845L66.1896 26.8007" stroke="#F26A29" stroke-width="3" stroke-linecap="round" stroke-linejoin="round"/>
<path d="M66.1896 36.6845L55.0429 26.8007" stroke="#F26A29" stroke-width="3" stroke-linecap="round" stroke-linejoin="round"/>
<path d="M44.9571 63.322H33.8104V73.2058H44.9571V63.322Z" stroke="#44546A" stroke-width="3" stroke-linecap="round" stroke-linejoin="round"/>
<path d="M66.1896 63.322H55.0429V73.2058H66.1896V63.322Z" stroke="#44546A" stroke-width="3" stroke-linecap="round" stroke-linejoin="round"/>
<path d="M86.5297 63.322H75.3831V73.2058H86.5297V63.322Z" stroke="#44546A" stroke-width="3" stroke-linecap="round" stroke-linejoin="round"/>
<path d="M13.4703 73.2058L24.6169 63.322" stroke="#982B8F" stroke-width="3" stroke-linecap="round" stroke-linejoin="round"/>
<path d="M13.4703 63.322L24.6169 73.2058" stroke="#982B8F" stroke-width="3" stroke-linecap="round" stroke-linejoin="round"/>
</svg>
