<svg width="88" height="99" viewBox="0 0 88 99" fill="none" xmlns="http://www.w3.org/2000/svg">
<path d="M22.7392 0.575195C20.0366 0.575195 17.8323 2.77947 17.8323 5.48211V56.1869H4.1466C2.77292 56.1869 1.57175 57.0175 1.07978 58.2953C0.594202 59.5732 0.945607 60.9916 1.96788 61.9052L41.8302 97.3334C42.4499 97.8829 43.223 98.1576 44.0025 98.1576C44.782 98.1576 45.5551 97.8829 46.1748 97.3334L86.0371 61.9052C87.0594 60.9916 87.4044 59.5732 86.9188 58.2953C86.4333 57.0175 85.2321 56.1869 83.8648 56.1869H70.1727V5.48211C70.1727 2.77947 67.9684 0.575195 65.2658 0.575195H22.7392ZM22.7392 3.84647H65.2658C66.1667 3.84647 66.9014 4.58123 66.9014 5.48211V16.9316H21.1036V5.48211C21.1036 4.58123 21.8383 3.84647 22.7392 3.84647ZM35.8243 7.11775C34.9234 7.11775 34.1887 7.84612 34.1887 8.75339V12.0247C34.1887 12.9319 34.9234 13.6603 35.8243 13.6603C36.7252 13.6603 37.46 12.9319 37.46 12.0247V8.75339C37.46 7.84612 36.7252 7.11775 35.8243 7.11775ZM52.1807 7.11775C51.2798 7.11775 50.5451 7.84612 50.5451 8.75339V12.0247C50.5451 12.9319 51.2798 13.6603 52.1807 13.6603C53.0816 13.6603 53.8163 12.9319 53.8163 12.0247V8.75339C53.8163 7.84612 53.0816 7.11775 52.1807 7.11775ZM21.1036 20.2029H66.9014V57.8225C66.9014 58.7298 67.6362 59.4582 68.5371 59.4582H83.8648L44.0025 94.8863L4.1466 59.4582H19.4679C20.3688 59.4582 21.1036 58.7298 21.1036 57.8225V20.2029Z" fill="#44546A"/>
<path d="M42.3666 26.746C42.3666 25.8387 43.1013 25.1104 44.0022 25.1104C44.9031 25.1104 45.6378 25.8387 45.6378 26.746V31.6529H47.2735C51.7843 31.6529 55.4517 35.3203 55.4517 39.8311C55.4517 40.7384 54.7169 41.4667 53.816 41.4667C52.9152 41.4667 52.1804 40.7384 52.1804 39.8311C52.1804 37.1285 49.9761 34.9242 47.2735 34.9242H40.7309C38.0283 34.9242 35.824 37.1285 35.824 39.8311V43.1024C35.824 45.805 38.0283 48.0093 40.7309 48.0093H42.3666V38.1955C42.3666 37.2882 43.1013 36.5598 44.0022 36.5598C44.9031 36.5598 45.6378 37.2882 45.6378 38.1955V48.0093H47.2735C51.7843 48.0093 55.4517 51.6767 55.4517 56.1875V59.4588C55.4517 63.9695 51.7843 67.6369 47.2735 67.6369H45.6378V72.5439C45.6378 73.4511 44.9031 74.1795 44.0022 74.1795C43.1013 74.1795 42.3666 73.4511 42.3666 72.5439V67.6369H40.7309C36.2201 67.6369 32.5527 63.9695 32.5527 59.4588C32.5527 58.5515 33.2875 57.8231 34.1884 57.8231C35.0893 57.8231 35.824 58.5515 35.824 59.4588C35.824 62.1614 38.0283 64.3657 40.7309 64.3657H42.3666V54.5518C42.3666 53.6446 43.1013 52.9162 44.0022 52.9162C44.9031 52.9162 45.6378 53.6446 45.6378 54.5518V64.3657H47.2735C49.9761 64.3657 52.1804 62.1614 52.1804 59.4588V56.1875C52.1804 53.4848 49.9761 51.2806 47.2735 51.2806H40.7309C36.2201 51.2806 32.5527 47.6132 32.5527 43.1024V39.8311C32.5527 35.3203 36.2201 31.6529 40.7309 31.6529H42.3666V26.746Z" fill="#F16A29"/>
<path d="M26.0107 8.7538C26.0107 7.84653 26.7455 7.11816 27.6464 7.11816C28.5473 7.11816 29.282 7.84653 29.282 8.7538V12.0251C29.282 12.9323 28.5473 13.6607 27.6464 13.6607C26.7455 13.6607 26.0107 12.9323 26.0107 12.0251V8.7538Z" fill="#982B8F"/>
<path d="M58.7236 8.7538C58.7236 7.84653 59.4584 7.11816 60.3593 7.11816C61.2602 7.11816 61.9949 7.84653 61.9949 8.7538V12.0251C61.9949 12.9323 61.2602 13.6607 60.3593 13.6607C59.4584 13.6607 58.7236 12.9323 58.7236 12.0251V8.7538Z" fill="#AFD136"/>
<path d="M42.3672 8.7538C42.3672 7.84653 43.1019 7.11816 44.0028 7.11816C44.9037 7.11816 45.6385 7.84653 45.6385 8.7538V12.0251C45.6385 12.9323 44.9037 13.6607 44.0028 13.6607C43.1019 13.6607 42.3672 12.9323 42.3672 12.0251V8.7538Z" fill="#F16A29"/>
</svg>
