<svg width="101" height="107" viewBox="0 0 101 107" fill="none" xmlns="http://www.w3.org/2000/svg">
<path d="M0.147461 53.3636C0.147461 69.6555 8.39729 84.4498 22.2394 93.0285L23.5465 90.873C10.4662 82.7531 2.66656 68.7639 2.66656 53.3636C2.66656 32.7606 16.5865 15.1616 36.5662 10.435L36.0122 7.97651C14.8725 12.9714 0.147461 31.566 0.147461 53.3636Z" fill="#F26A29"/>
<path d="M99.7687 97.8503L93.0425 91.1241C92.549 90.6306 91.7526 90.6306 91.2592 91.1241C90.7658 91.6175 90.7658 92.4139 91.2592 92.9074L95.8299 97.4781H62.0255L64.0512 96.6644C81.884 89.5226 93.4061 72.5295 93.4061 53.3636C93.4061 28.0168 72.7858 7.10219 47.439 6.74726L46.4435 6.72995L51.0142 2.15921C51.2479 1.92548 51.3865 1.60518 51.3865 1.26757C51.3865 0.929962 51.2566 0.618321 51.0142 0.375933C50.5208 -0.117499 49.7244 -0.117499 49.2309 0.375933L42.5047 7.10219C42.0112 7.59562 42.0112 8.39204 42.5047 8.88547L49.2309 15.6117C49.7071 16.0878 50.5381 16.0878 51.0142 15.6117C51.2479 15.378 51.3865 15.0577 51.3865 14.7201C51.3865 14.3825 51.2566 14.0708 51.0142 13.8284L46.4435 9.2577L47.4823 9.27502C71.4094 9.66457 90.8783 29.4451 90.8783 53.3722C90.8783 77.2994 71.0891 97.4867 46.7638 97.4867H6.87372V100.006H95.8386L91.2679 104.577C90.7744 105.07 90.7744 105.866 91.2679 106.36C91.7613 106.853 92.575 106.836 93.0511 106.36L99.7774 99.6336C100.271 99.1402 100.271 98.3438 99.7774 97.8503H99.7687Z" fill="#06466C"/>
<path d="M5.99316 56.041L13.9932 56.041" stroke="#06466C" stroke-width="3" stroke-linecap="round"/>
<path d="M44.4961 92.5449L44.4961 84.5449" stroke="#06466C" stroke-width="3" stroke-linecap="round"/>
<path d="M78.9922 56.041H86.9922" stroke="#06466C" stroke-width="3" stroke-linecap="round"/>
<path d="M44.3896 21.7363L44.3896 53.9651" stroke="#06466C" stroke-width="3" stroke-linecap="round"/>
<path d="M48.9932 56.041L69.4595 56.041" stroke="#06466C" stroke-width="3" stroke-linecap="round"/>
<circle cx="44.3898" cy="56.0412" r="4.60368" fill="#F26A29"/>
</svg>
